<svg version="1.1" id="Layer_1" xmlns="http://www.w3.org/2000/svg" xmlns:xlink="http://www.w3.org/1999/xlink" x="0px" y="0px"
	 width="100%" viewBox="370 125 290 245" enable-background="new 370 125 290 245" xml:space="preserve">
<path fill="#000000" opacity="1.000000" stroke="none" 
	d="
M401.474945,323.413147 
	C400.893707,322.361603 400.392578,321.670044 400.103027,320.899017 
	C398.240265,315.938721 395.577881,313.229706 389.432770,312.677765 
	C380.860474,311.907867 376.189117,305.288361 374.841827,297.079742 
	C373.000336,285.860077 372.875153,274.512604 375.002380,263.294250 
	C376.679840,254.447662 381.689453,249.798492 390.372650,248.674728 
	C393.575836,248.260178 395.294464,246.881226 396.438843,243.798920 
	C407.821930,213.139389 430.305420,196.678299 462.384552,192.638336 
	C463.375336,192.513565 464.374817,192.186768 465.349915,192.253143 
	C471.147278,192.647705 475.040649,190.148621 478.724579,185.579193 
	C484.169220,178.825867 492.255402,176.148575 500.598053,174.646255 
	C507.632477,173.379486 507.595367,173.482986 507.678497,166.165543 
	C507.736786,161.032883 507.639862,156.718964 502.776001,152.658157 
	C496.090271,147.076263 497.406616,136.818100 504.172607,131.137405 
	C510.218231,126.061516 519.932129,127.541840 524.913391,134.298111 
	C529.751709,140.860474 528.089844,150.372803 521.030884,154.887848 
	C519.039917,156.161301 518.267334,157.497192 518.320618,159.690125 
	C518.417664,163.684830 517.410767,168.050308 518.708069,171.584381 
	C520.311401,175.952240 525.643921,174.082977 529.253479,175.225266 
	C537.648560,177.881973 545.578796,181.206848 550.629395,188.952927 
	C552.244263,191.429626 554.463867,191.659607 557.066895,191.808975 
	C578.256104,193.024826 597.065979,199.940979 612.220032,215.315247 
	C620.169373,223.380020 625.997742,232.816818 629.762878,243.491119 
	C630.645020,245.992126 631.615967,248.075577 634.655823,248.386353 
	C647.807678,249.730835 651.013062,257.659485 651.881653,267.417938 
	C652.763062,277.320374 653.279297,287.393524 651.336182,297.281036 
	C649.274353,307.772583 643.862915,312.553925 633.289429,313.234283 
	C630.145752,313.436554 629.123352,315.122986 627.984253,317.528931 
	C619.275330,335.923676 605.550171,349.183411 586.690857,356.876282 
	C577.683228,360.550568 568.149719,362.278778 558.424805,362.310059 
	C528.109070,362.407654 497.783325,362.815643 467.479675,362.203003 
	C438.692902,361.621033 416.566650,348.587189 401.474945,323.413147 
M479.518433,220.369141 
	C477.353271,220.372208 475.188080,220.368546 473.022949,220.379379 
	C440.077637,220.544357 415.038818,244.416687 413.357239,277.263428 
	C411.683929,309.948608 438.836975,338.630585 471.557526,338.676239 
	C498.872009,338.714355 526.186646,338.711334 553.501099,338.671967 
	C586.277161,338.624695 612.164124,313.009094 612.644897,280.213348 
	C613.129089,247.183975 586.970581,220.478867 553.962463,220.394333 
	C529.479431,220.331619 504.996155,220.373932 479.518433,220.369141 
z"/>
<path fill="#000000" opacity="1.000000" stroke="none" 
	d="
M606.539062,269.709351 
	C613.253296,301.664764 586.906799,334.101257 555.934998,333.496307 
	C527.785889,332.946503 499.603699,332.831238 471.461304,333.533508 
	C438.920197,334.345520 411.781464,301.311157 420.236969,266.366760 
	C426.313751,241.253067 449.569305,224.886337 473.091400,225.535736 
	C500.563843,226.294205 528.073364,225.681931 555.566650,225.719940 
	C580.893005,225.754944 602.274780,244.100204 606.539062,269.709351 
M440.507446,294.920013 
	C441.540314,296.002319 442.514954,297.148163 443.615326,298.156799 
	C451.807709,305.665741 462.514191,306.630737 472.117706,300.761322 
	C481.298981,295.149963 485.514343,284.071381 482.696838,272.957947 
	C480.199127,263.105927 470.673279,255.459030 460.456940,255.266937 
	C451.261230,255.094040 443.837860,258.726074 439.103577,266.656311 
	C433.556793,275.947479 433.965820,285.316132 440.507446,294.920013 
M548.699646,263.215118 
	C547.713684,264.550568 546.552673,265.791321 545.770264,267.236908 
	C540.817322,276.387421 540.929260,285.510712 547.001587,294.010376 
	C552.501892,301.709229 560.130371,305.771515 569.812256,304.199432 
	C580.551270,302.455719 589.131409,293.617981 590.601990,283.385223 
	C592.047913,273.324127 586.817322,262.855682 578.017273,258.198120 
	C568.055298,252.925568 558.018494,254.488983 548.699646,263.215118 
M527.980652,297.758575 
	C526.369080,297.229736 525.557190,298.378754 524.644348,299.336914 
	C516.509033,307.875397 509.865021,307.981842 501.977600,299.678162 
	C500.708099,298.341736 499.428680,296.524048 497.443420,298.062988 
	C495.439331,299.616547 496.892853,301.409760 497.900940,302.878479 
	C504.735565,312.835815 520.313049,313.320282 527.596069,303.756592 
	C528.812134,302.159729 530.643433,300.361969 527.980652,297.758575 
z"/>
<path fill="#000000" opacity="1.000000" stroke="none" 
	d="
M454.226227,299.194061 
	C442.405701,294.255310 437.673859,285.511444 440.540222,274.537537 
	C442.690857,266.303741 448.957306,260.624176 456.846100,259.758759 
	C465.463989,258.813354 473.371704,263.118774 476.977203,270.719330 
	C480.562958,278.278229 479.151978,287.770721 473.658295,293.549896 
	C468.386566,299.095642 462.106110,301.161285 454.226227,299.194061 
M470.670074,280.261871 
	C466.587982,276.669739 461.264862,274.256287 459.600586,268.063385 
	C457.256165,273.625336 453.138458,276.999969 447.679901,279.775696 
	C453.468048,282.592438 457.502258,285.888550 459.443848,291.787445 
	C461.680847,286.158966 465.225891,282.635803 470.670074,280.261871 
z"/>
<path fill="#000000" opacity="1.000000" stroke="none" 
	d="
M548.374878,287.225739 
	C545.461487,279.110779 546.812256,272.101440 552.352661,266.072571 
	C557.486145,260.486511 563.911743,258.410645 571.348511,260.213409 
	C580.186707,262.355927 586.498901,270.905396 586.283508,280.175140 
	C586.062561,289.683899 579.965820,297.412872 571.131104,299.384094 
	C561.286865,301.580536 553.264038,297.391693 548.374878,287.225739 
M567.612122,289.402954 
	C569.698853,284.513977 573.794006,281.917999 579.382263,280.003998 
	C573.276001,277.442444 569.089233,273.948669 566.589355,267.428772 
	C564.554443,273.988068 560.558105,277.447815 554.468811,279.825562 
	C559.974731,282.022736 563.377991,285.186523 565.486084,289.694855 
	C565.901917,290.584106 566.596680,290.923187 567.612122,289.402954 
z"/>
</svg>